<svg width="10" height="32" viewBox="0 0 32 32" fill="none" xmlns="http://www.w3.org/2000/svg">
<path d="M27.0801 18.8933L26.5001 18.4266C26.3442 18.3018 26.2183 18.1435 26.1317 17.9635C26.0452 17.7835 26.0002 17.5864 26.0001 17.3866V12C25.9993 9.68509 25.1954 7.44217 23.7256 5.6538C22.2558 3.86543 20.211 2.64239 17.9401 2.19331C17.8294 1.76384 17.579 1.38336 17.2284 1.1117C16.8779 0.840047 16.4469 0.692627 16.0034 0.692627C15.5599 0.692627 15.129 0.840047 14.7784 1.1117C14.4278 1.38336 14.1775 1.76384 14.0667 2.19331C11.7946 2.64103 9.74831 3.86348 8.27714 5.65198C6.80598 7.44048 6.00116 9.68414 6.00008 12V17.3866C5.99996 17.5864 5.95496 17.7835 5.86842 17.9635C5.78188 18.1435 5.656 18.3018 5.50008 18.4266L4.92008 18.8933C4.2196 19.4533 3.65357 20.1632 3.26361 20.9708C2.87366 21.7784 2.6697 22.6632 2.66675 23.56V24.6666C2.66675 25.3739 2.9477 26.0522 3.4478 26.5523C3.94789 27.0524 4.62617 27.3333 5.33341 27.3333H10.8401C11.1406 28.4717 11.8094 29.4787 12.7422 30.1972C13.675 30.9157 14.8193 31.3053 15.9967 31.3053C17.1742 31.3053 18.3185 30.9157 19.2513 30.1972C20.1841 29.4787 20.8529 28.4717 21.1534 27.3333H26.6667C27.374 27.3333 28.0523 27.0524 28.5524 26.5523C29.0525 26.0522 29.3334 25.3739 29.3334 24.6666V23.5733C29.3325 22.6742 29.1295 21.7869 28.7394 20.9768C28.3494 20.1668 27.7823 19.4547 27.0801 18.8933ZM16.0001 28.6666C15.5347 28.6638 15.0782 28.5393 14.6759 28.3054C14.2735 28.0715 13.9394 27.7363 13.7067 27.3333H18.3001C18.0668 27.7373 17.7317 28.0731 17.3281 28.307C16.9245 28.541 16.4666 28.665 16.0001 28.6666ZM26.6667 24.6666H5.33341V23.5733C5.33413 23.0737 5.44713 22.5807 5.66407 22.1306C5.88102 21.6806 6.19635 21.2851 6.58675 20.9733L7.16675 20.5066C7.63449 20.1321 8.01213 19.6573 8.27176 19.1173C8.53139 18.5773 8.66637 17.9858 8.66675 17.3866V12C8.66675 10.0551 9.43936 8.18979 10.8146 6.81452C12.1899 5.43926 14.0552 4.66664 16.0001 4.66664C17.945 4.66664 19.8103 5.43926 21.1855 6.81452C22.5608 8.18979 23.3334 10.0551 23.3334 12V17.3866C23.3328 17.987 23.4673 18.5797 23.727 19.121C23.9866 19.6622 24.3648 20.1381 24.8334 20.5133L25.4134 20.98C25.8029 21.291 26.1177 21.6855 26.3346 22.1343C26.5516 22.5831 26.665 23.0748 26.6667 23.5733V24.6666Z" fill="white"/>
</svg>
