<svg width="15" height="30" viewBox="0 0 25 30" fill="none" xmlns="http://www.w3.org/2000/svg">
<path d="M12.4999 14.5833C13.9421 14.5833 15.3518 14.1557 16.551 13.3545C17.7501 12.5533 18.6847 11.4144 19.2365 10.0821C19.7884 8.74969 19.9328 7.28358 19.6515 5.86914C19.3701 4.45469 18.6757 3.15544 17.6559 2.13568C16.6361 1.11592 15.3369 0.421461 13.9225 0.140111C12.508 -0.14124 11.0419 0.00315936 9.70952 0.555048C8.37714 1.10694 7.23834 2.04153 6.43712 3.24064C5.6359 4.43974 5.20825 5.84951 5.20825 7.29167C5.20825 9.22554 5.97648 11.0802 7.34393 12.4477C8.71138 13.8151 10.566 14.5833 12.4999 14.5833ZM12.4999 2.08334C13.53 2.08334 14.537 2.3888 15.3935 2.9611C16.25 3.5334 16.9176 4.34683 17.3118 5.29853C17.706 6.25023 17.8091 7.29745 17.6082 8.30777C17.4072 9.31808 16.9112 10.2461 16.1828 10.9745C15.4544 11.7029 14.5263 12.199 13.516 12.3999C12.5057 12.6009 11.4585 12.4977 10.5068 12.1035C9.55508 11.7093 8.74165 11.0418 8.16935 10.1853C7.59705 9.32876 7.29159 8.32178 7.29159 7.29167C7.29159 5.91033 7.84032 4.58557 8.81707 3.60882C9.79382 2.63207 11.1186 2.08334 12.4999 2.08334Z" fill="white"/>
<path d="M13.5417 16.6666H11.4583C8.41939 16.6666 5.50492 17.8738 3.35607 20.0227C1.20721 22.1715 0 25.086 0 28.125C0 28.4012 0.109747 28.6662 0.305097 28.8615C0.500448 29.0569 0.765399 29.1666 1.04167 29.1666H23.9583C24.2346 29.1666 24.4996 29.0569 24.6949 28.8615C24.8903 28.6662 25 28.4012 25 28.125C25 25.086 23.7928 22.1715 21.6439 20.0227C19.4951 17.8738 16.5806 16.6666 13.5417 16.6666ZM2.14583 27.0833C2.40197 24.7923 3.49324 22.676 5.21112 21.1387C6.92901 19.6015 9.15306 18.7511 11.4583 18.75H13.5417C15.8469 18.7511 18.071 19.6015 19.7889 21.1387C21.5068 22.676 22.598 24.7923 22.8542 27.0833H2.14583Z" fill="white"/>
</svg>
