<svg width="20" height="20" viewBox="0 0 24 24" fill="none" xmlns="http://www.w3.org/2000/svg">
<g clip-path="url(#clip0_9_276)">
<path d="M22.5 16.5H1.5V14.25H10.5V12.75H4.5V4.5H6.75V3H3.75C3.55109 3 3.36032 3.07902 3.21967 3.21967C3.07902 3.36032 3 3.55109 3 3.75V12.75H1.5V2.25C1.5 2.05109 1.57902 1.86032 1.71967 1.71967C1.86032 1.57902 2.05109 1.5 2.25 1.5H7.5V0H2.25C1.65326 0 1.08097 0.237053 0.65901 0.65901C0.237053 1.08097 0 1.65326 0 2.25L0 17.25C0 17.4489 0.0790176 17.6397 0.21967 17.7803C0.360322 17.921 0.551088 18 0.75 18H7.3875L6.855 21.75H6C5.80109 21.75 5.61032 21.829 5.46967 21.9697C5.32902 22.1103 5.25 22.3011 5.25 22.5H3.75V24H20.25V22.5H18.75C18.75 22.3011 18.671 22.1103 18.5303 21.9697C18.3897 21.829 18.1989 21.75 18 21.75H17.1525L16.62 18H23.25C23.4489 18 23.6397 17.921 23.7803 17.7803C23.921 17.6397 24 17.4489 24 17.25V12.75H22.5V16.5ZM8.3625 21.75L8.895 18H15.0975L15.63 21.75H8.3625Z" fill="white"/>
<path d="M21.75 0.75H11.25C10.6533 0.75 10.081 0.987053 9.65901 1.40901C9.23705 1.83097 9 2.40326 9 3V7.5C9 8.09674 9.23705 8.66903 9.65901 9.09099C10.081 9.51295 10.6533 9.75 11.25 9.75H12.75V12.75C12.7491 12.899 12.7927 13.0448 12.875 13.169C12.9574 13.2931 13.0748 13.3899 13.2124 13.447C13.35 13.5042 13.5014 13.519 13.6475 13.4897C13.7936 13.4604 13.9276 13.3883 14.0325 13.2825L17.5575 9.75H21.75C22.3467 9.75 22.919 9.51295 23.341 9.09099C23.7629 8.66903 24 8.09674 24 7.5V3C24 2.40326 23.7629 1.83097 23.341 1.40901C22.919 0.987053 22.3467 0.75 21.75 0.75ZM22.5 7.5C22.5 7.69891 22.421 7.88968 22.2803 8.03033C22.1397 8.17098 21.9489 8.25 21.75 8.25H17.25C17.1513 8.24943 17.0534 8.26835 16.9621 8.30567C16.8707 8.343 16.7876 8.39799 16.7175 8.4675L14.25 10.9425V9C14.25 8.80109 14.171 8.61032 14.0303 8.46967C13.8897 8.32902 13.6989 8.25 13.5 8.25H11.25C11.0511 8.25 10.8603 8.17098 10.7197 8.03033C10.579 7.88968 10.5 7.69891 10.5 7.5V3C10.5 2.80109 10.579 2.61032 10.7197 2.46967C10.8603 2.32902 11.0511 2.25 11.25 2.25H21.75C21.9489 2.25 22.1397 2.32902 22.2803 2.46967C22.421 2.61032 22.5 2.80109 22.5 3V7.5Z" fill="white"/>
<path d="M17.25 4.5H15.75V6H17.25V4.5Z" fill="white"/>
<path d="M20.25 4.5H18.75V6H20.25V4.5Z" fill="white"/>
<path d="M14.25 4.5H12.75V6H14.25V4.5Z" fill="white"/>
</g>
<defs>
<clipPath id="clip0_9_276">
<rect width="24" height="24" fill="white"/>
</clipPath>
</defs>
</svg>
