<svg width="20" height="20" viewBox="0 0 21 25" fill="none" xmlns="http://www.w3.org/2000/svg">
<path d="M15.8223 8.19336H9.14258C8.86426 8.19336 8.63477 7.96387 8.63477 7.68555V7.64648C8.63477 7.36816 8.86426 7.13867 9.14258 7.13867H15.8223C16.1006 7.13867 16.3301 7.36816 16.3301 7.64648V7.68555C16.335 7.96387 16.1055 8.19336 15.8223 8.19336Z" fill="white"/>
<path d="M15.8223 11.1719H5.51465C5.23633 11.1719 5.00684 10.9424 5.00684 10.6641V10.625C5.00684 10.3467 5.23633 10.1172 5.51465 10.1172H15.8223C16.1006 10.1172 16.3301 10.3467 16.3301 10.625V10.6641C16.335 10.9424 16.1055 11.1719 15.8223 11.1719Z" fill="white"/>
<path d="M15.8223 14.1504H5.51465C5.23633 14.1504 5.00684 13.9209 5.00684 13.6426V13.6035C5.00684 13.3252 5.23633 13.0957 5.51465 13.0957H15.8223C16.1006 13.0957 16.3301 13.3252 16.3301 13.6035V13.6426C16.335 13.9209 16.1055 14.1504 15.8223 14.1504Z" fill="white"/>
<path d="M15.8223 17.1338H5.51465C5.23633 17.1338 5.00684 16.9043 5.00684 16.626V16.5869C5.00684 16.3086 5.23633 16.0791 5.51465 16.0791H15.8223C16.1006 16.0791 16.3301 16.3086 16.3301 16.5869V16.626C16.335 16.9043 16.1055 17.1338 15.8223 17.1338Z" fill="white"/>
<path d="M15.8223 20.1123H5.51465C5.23633 20.1123 5.00684 19.8828 5.00684 19.6045V19.5654C5.00684 19.2871 5.23633 19.0576 5.51465 19.0576H15.8223C16.1006 19.0576 16.3301 19.2871 16.3301 19.5654V19.6045C16.335 19.8828 16.1055 20.1123 15.8223 20.1123Z" fill="white"/>
<path d="M17.1406 2.12402H6.75L8.63477 4.63379H15.7002C17.0283 4.63379 18.1172 5.72266 18.1172 7.05078V20.2002C18.1172 21.5283 17.0283 22.6172 15.7002 22.6172H5.53906C4.21094 22.6172 3.12207 21.5283 3.12207 20.2002V7.36816L1.18848 4.80469C1.17383 4.93652 1.14941 5.06348 1.14941 5.19531V21.9092C1.14941 23.5986 2.53125 24.9854 4.22559 24.9854H17.1406C18.8301 24.9854 20.2168 23.6035 20.2168 21.9092V5.19531C20.2119 3.50586 18.8301 2.12402 17.1406 2.12402Z" fill="white"/>
<path d="M4.12793 7.31445L7.46289 8.53516C7.63867 8.59863 7.78027 8.50098 7.77051 8.31055L7.61426 4.76074C7.60938 4.6875 7.58984 4.61914 7.55078 4.55078L7.55566 4.5459C7.55078 4.53613 7.54102 4.52637 7.53613 4.5166L5.15332 1.26465L4.37207 1.83594L6.52539 4.77539C6.61328 4.89258 6.58398 5.05859 6.4668 5.14648L6.28125 5.2832C6.16406 5.37109 5.99805 5.3418 5.91016 5.22461L3.76172 2.29004L2.99023 2.85645L5.1582 5.82031C5.23633 5.92773 5.21191 6.07422 5.10449 6.15234L4.875 6.32324C4.76758 6.40137 4.62109 6.37695 4.54297 6.26953L2.375 3.30078L1.54492 3.90625L3.84961 7.05078C3.9082 7.16797 4.00586 7.27051 4.12793 7.31445ZM4.73828 6.92871L7.0625 5.22461C7.2041 5.12207 7.43359 5.28809 7.44336 5.50781L7.49707 7.44629C7.46289 7.45605 7.42871 7.46094 7.39941 7.48047L6.70605 7.98828C6.70117 7.99316 6.69141 7.98828 6.69141 7.99316L4.89453 7.37793C4.68945 7.30469 4.59668 7.03125 4.73828 6.92871Z" fill="white"/>
<path d="M1.36425 3.67678L1.08593 3.30081C0.573237 2.60256 0.729487 1.61624 1.42773 1.10354L2.50195 0.317408C3.20019 -0.195287 4.18652 -0.0390374 4.69921 0.659205L4.97753 1.03518L1.36425 3.67678Z" fill="white"/>
</svg>
