<svg width="60" height="60" viewBox="0 0 100 100" fill="none" xmlns="http://www.w3.org/2000/svg">
<circle cx="50" cy="50" r="50" fill="#FF4500"/>
<g clip-path="url(#clip0_24_46)">
<path d="M40.2729 53.7802C38.2698 53.7802 36.6369 55.4119 36.6369 57.3117C36.6369 59.2114 38.2698 60.8432 40.2729 60.8432C42.276 60.8432 43.9089 59.2114 43.9089 57.3117C43.9089 55.4119 42.2828 53.7802 40.2729 53.7802ZM31.9335 58.4813C30.513 57.063 28.2124 57.063 26.7929 58.4813C25.3724 59.9007 25.3724 62.2036 26.7929 63.6219L34.0558 70.8882C35.4764 72.3065 37.777 72.3064 39.1964 70.8884C40.617 69.469 40.617 67.1661 39.1964 65.7478L31.9335 58.4813ZM25.7289 68.315C23.7259 68.315 22.093 69.9502 22.093 71.9488C22.093 73.9473 23.7259 75.5825 25.7289 75.5825C27.732 75.5825 29.3649 73.9507 29.3649 72.051C29.3649 70.1512 27.732 68.315 25.7289 68.315ZM54.7624 25.4269C42.1693 22.0907 30.723 30.8241 29.4626 42.5622C29.1446 44.6845 31.033 46.4105 33.1724 46.4105C35.0585 46.4105 36.4938 44.9264 36.7198 43.055C37.5072 36.5575 43.2162 31.552 49.9943 31.8927C58.1372 32.3008 63.2914 40.6159 61.6335 48.5737C60.8896 51.9406 59.2035 55.0315 56.7076 57.5297L54.7964 59.5373V61.0419C54.7964 64.6075 52.2176 67.5803 48.8258 68.1935C47.1202 68.5081 45.7121 70.0524 45.7121 71.7898C45.7121 74.0359 47.7425 75.7574 49.9568 75.3826C56.3067 74.3103 61.2701 69.1054 61.9821 62.6419C66.5368 58.0225 69.1235 51.9735 69.3234 45.5066C69.6039 36.3383 63.6309 27.7763 54.7624 25.4269ZM49.3459 40.1537C51.8509 40.1537 53.888 42.1909 53.888 44.6959C53.888 46.2004 55.1087 47.4211 56.6133 47.4211C58.1179 47.4211 59.3386 46.2004 59.3386 44.6959C59.3386 39.1851 54.8566 34.7031 49.3459 34.7031C43.8351 34.7031 39.3531 39.1885 39.3531 44.6959C39.3531 46.2004 40.5738 47.4211 42.0784 47.4211C43.583 47.4211 44.8037 46.2061 44.8037 44.6959C44.8037 42.1863 46.8363 40.1537 49.3459 40.1537ZM67.2646 17.7978C65.458 16.9355 63.2846 17.702 62.4204 19.5113C61.5581 21.3248 62.3264 23.4925 64.1374 24.3555C69.5017 26.9145 72.965 32.7614 72.965 39.2453C72.965 41.254 74.5923 42.879 76.5988 42.879C78.6053 42.879 80.2325 41.2552 80.2325 39.2453C80.2325 29.9679 75.1453 21.5525 67.2646 17.7978Z" fill="#FFF7F7"/>
</g>
<defs>
<clipPath id="clip0_24_46">
<rect width="58.1395" height="58.1395" fill="white" transform="translate(22.093 17.4419)"/>
</clipPath>
</defs>
</svg>
