<svg width="20" height="20" viewBox="0 0 25 25" fill="none" xmlns="http://www.w3.org/2000/svg">
<g clip-path="url(#clip0_10_416)">
<path d="M24.9086 10.4289L24.898 10.4047L24.9039 10.4L24.8266 10.2524L20.6781 2.35353C20.5648 2.14728 20.1707 1.54181 19.4125 1.54181H5.51523C4.66913 1.54181 4.2457 2.3754 4.23632 2.39493L0.162103 10.1524L0.16054 10.1559L0.131634 10.2106C0.0632744 10.3457 -0.0882881 10.7129 0.0621025 11.0754C1.09726 12.7559 2.94257 13.8832 5.06093 13.8832C7.13202 13.8832 8.93866 12.8031 9.98554 11.1848C10.1457 10.8172 9.92265 10.3567 9.92265 10.3567L6.06796 3.01603L6.03046 2.94493C5.97851 2.8254 5.93242 2.59767 6.3457 2.59767H11.3996C11.543 2.60236 11.9426 2.67345 11.9426 3.34259V20.7324C11.9332 20.9047 11.868 21.2535 11.5098 21.4746L8.97968 23.0395C8.97968 23.0395 8.31601 23.4582 8.97968 23.4582H16.159C16.6484 23.4582 16.159 23.1188 16.159 23.1188L13.5527 21.5234C13.5516 21.5227 13.5516 21.5219 13.5504 21.5211C13.1219 21.2586 13.0418 20.9281 13.0301 20.7613V3.26837C13.0301 2.66368 13.4637 2.60118 13.616 2.59767H18.5578C18.6871 2.60001 19.0812 2.64298 18.8332 3.11759L14.9633 10.484C14.9633 10.484 14.8422 10.7738 14.9785 11.0918C16.0148 12.7629 17.8531 13.8832 19.9648 13.8832C22.0801 13.8832 23.925 12.7606 24.9601 11.084C25.0637 10.8137 24.9473 10.5137 24.9086 10.4289ZM8.67109 10.1969L8.67148 10.1973L8.7246 10.2992C8.80663 10.4688 8.93046 10.7914 8.67148 10.7914L1.3246 10.7906C1.08085 10.7906 1.12929 10.5676 1.20702 10.3875L1.32343 10.1664L1.3246 10.1645L4.82695 3.49572C4.82695 3.49572 5.00585 3.21915 5.15117 3.49572L8.67109 10.1969ZM16.2414 10.2777L16.2934 10.1789C16.2934 10.1785 16.2953 10.175 16.2953 10.175L19.7195 3.65509C19.7242 3.64806 19.9566 3.20587 20.1934 3.65626L23.6074 10.1559C23.6781 10.2957 23.8941 10.7922 23.3875 10.7922L16.5691 10.791C16.568 10.791 16.568 10.791 16.568 10.791C16.0711 10.7906 16.1609 10.4524 16.2414 10.2777Z" fill="white"/>
</g>
<defs>
<clipPath id="clip0_10_416">
<rect width="25" height="25" fill="white"/>
</clipPath>
</defs>
</svg>
