<svg width="20" height="20" viewBox="0 0 25 25" fill="none" xmlns="http://www.w3.org/2000/svg">
<path d="M24.5582 6.57891H24.5359C24.1078 6.58165 24.0414 6.20977 24.034 6.03712V3.33672C24.034 3.04844 23.8004 2.81485 23.5129 2.81485H15.7922C13.8551 2.81485 13.1324 3.53282 12.9531 3.75821L12.9039 3.82657L12.9035 3.82774L12.7508 4.03712C12.5457 4.31876 12.3668 4.19883 12.2809 4.10665L11.9887 3.74219L11.8441 3.56797C11.6012 3.3129 10.968 2.81485 9.7129 2.81485H1.48751C1.19922 2.81485 0.965631 3.04844 0.965631 3.33672V6.00274C0.965631 6.46954 0.712115 6.56329 0.556647 6.57891H0.441022C0.314459 6.58672 0.019928 6.66016 0.019928 7.20196V19.9086C0.019928 20.2203 0.272662 20.4727 0.584381 20.4727H8.09141C10.4863 20.4727 11.5301 21.3758 11.843 21.7223L12.0215 21.9434C12.0215 21.9434 12.5008 22.4852 13.0055 21.9434L13.1102 21.8207L13.1117 21.8199L13.2453 21.6637C13.2492 21.659 13.2813 21.6231 13.3277 21.5754C13.7274 21.1867 14.7262 20.4727 16.6793 20.4727H24.4156C24.7277 20.4727 24.9801 20.2203 24.9801 19.9086V7.07891C24.9801 6.61954 24.6477 6.58126 24.5582 6.57891ZM22.8715 17.9148C22.8715 18.1652 22.6625 18.3672 22.4023 18.3672H16.0371C13.7719 18.3672 12.9496 19.3906 12.9496 19.3906L12.8453 19.5305L12.7965 19.5981C12.5805 19.8914 12.2625 19.6004 12.2609 19.5988L12.1145 19.4156C12.0059 19.2852 11.1738 18.3668 9.16016 18.3668H2.59766C2.33868 18.3668 2.1293 18.1645 2.1293 17.9145V4.37462C2.1293 4.12462 2.33868 3.92227 2.59766 3.92227H7.69258C11.4824 3.92227 11.8414 6.07501 11.866 6.7004V16.1168C11.866 16.8012 12.1922 16.9297 12.3762 16.9484H12.65C12.8375 16.9297 13.1356 16.8184 13.1356 16.2844V6.57891H13.1324C13.1606 5.79571 13.466 3.92188 15.7453 3.92188H22.4023C22.6625 3.92188 22.8715 4.12422 22.8715 4.37422V17.9148Z" fill="white"/>
</svg>
