<svg width="6" height="14" viewBox="0 0 40 36" fill="none" xmlns="http://www.w3.org/2000/svg">
<path d="M11.875 7.375C9.80388 7.375 8.12498 9.05391 8.12498 11.125C8.12498 13.1961 9.80388 14.875 11.875 14.875C13.9461 14.875 15.625 13.1961 15.625 11.125C15.625 9.05391 13.9453 7.375 11.875 7.375ZM34.9297 0.5H4.92967C2.23826 0.5 -0.000732422 2.73828 -0.000732422 5.5V30.5C-0.000732422 33.2617 2.23755 35.5 4.92896 35.5H34.929C37.6907 35.5 39.929 33.2617 39.929 30.5V5.5C39.9297 2.73828 37.7578 0.5 34.9297 0.5ZM36.1797 29.9766L25.4922 15.4531C25.2969 15.0938 24.8515 14.875 24.375 14.875C23.8974 14.875 23.4515 15.0912 23.1867 15.4515L14.8586 26.7093L11.9609 23.1077C11.6921 22.7734 11.2629 22.5758 10.807 22.5758C10.3506 22.5758 9.92185 22.7734 9.65232 23.1077L3.75232 30.4366C3.75232 30.4344 3.75232 30.4389 3.75232 30.4366L3.7492 5.5C3.7492 4.81078 4.30998 4.25 4.9992 4.25H34.9992C35.6884 4.25 36.2492 4.81078 36.2492 5.5V29.9766H36.1797Z" fill="white" fill-opacity="0.39"/>
</svg>
