<svg width="20" height="20" viewBox="0 0 24 24" fill="none" xmlns="http://www.w3.org/2000/svg">
<path d="M7.50469 15.0003C6.67781 15.0003 6.00375 15.6739 6.00375 16.4582C6.00375 17.2424 6.67781 17.916 7.50469 17.916C8.33156 17.916 9.00562 17.2424 9.00562 16.4582C9.00562 15.6739 8.33438 15.0003 7.50469 15.0003ZM4.06219 16.941C3.47578 16.3555 2.52609 16.3555 1.94016 16.941C1.35375 17.5269 1.35375 18.4775 1.94016 19.063L4.93828 22.0625C5.52469 22.648 6.47437 22.648 7.06031 22.0626C7.64672 21.4767 7.64672 20.5261 7.06031 19.9406L4.06219 16.941ZM1.50094 21.0003C0.674063 21.0003 0 21.6753 0 22.5003C0 23.3253 0.674063 24.0003 1.50094 24.0003C2.32781 24.0003 3.00187 23.3267 3.00187 22.5425C3.00187 21.7583 2.32781 21.0003 1.50094 21.0003ZM13.4859 3.29612C8.2875 1.91893 3.5625 5.52409 3.04219 10.3696C2.91094 11.2457 3.69047 11.9582 4.57359 11.9582C5.35219 11.9582 5.94469 11.3455 6.03797 10.573C6.363 7.89081 8.71969 5.82456 11.5177 5.96518C14.8791 6.13365 17.0067 9.56612 16.3223 12.8511C16.0153 14.241 15.3192 15.5169 14.2889 16.5482L13.5 17.3769V17.998C13.5 19.4699 12.4355 20.6971 11.0353 20.9502C10.3313 21.08 9.75 21.7175 9.75 22.4347C9.75 23.3619 10.5881 24.0725 11.5022 23.9178C14.1234 23.4752 16.1723 21.3266 16.4662 18.6585C18.3464 16.7516 19.4142 14.2546 19.4967 11.585C19.6125 7.80034 17.1469 4.26596 13.4859 3.29612ZM11.25 9.37534C12.2841 9.37534 13.125 10.2163 13.125 11.2503C13.125 11.8714 13.6289 12.3753 14.25 12.3753C14.8711 12.3753 15.375 11.8714 15.375 11.2503C15.375 8.9755 13.5248 7.12534 11.25 7.12534C8.97516 7.12534 7.125 8.9769 7.125 11.2503C7.125 11.8714 7.62891 12.3753 8.25 12.3753C8.87109 12.3753 9.375 11.8738 9.375 11.2503C9.375 10.2144 10.2141 9.37534 11.25 9.37534ZM18.6469 0.146823C17.9011 -0.209145 17.0039 0.10727 16.6472 0.854167C16.2912 1.60276 16.6084 2.4976 17.3559 2.85385C19.5703 3.91018 21 6.32378 21 9.00034C21 9.82956 21.6717 10.5003 22.5 10.5003C23.3283 10.5003 24 9.83003 24 9.00034C24 5.17065 21.9 1.69675 18.6469 0.146823Z" fill="#FFF7F7"/>
</svg>
