<svg width="35" height="40" viewBox="0 0 40 40" fill="none" xmlns="http://www.w3.org/2000/svg">
<circle cx="20" cy="20" r="20" fill="#FF4500"/>
<path d="M20.4444 19.4444C21.5213 19.4444 22.5739 19.1251 23.4692 18.5269C24.3645 17.9286 25.0624 17.0783 25.4745 16.0835C25.8865 15.0886 25.9944 13.9939 25.7843 12.9378C25.5742 11.8817 25.0557 10.9116 24.2942 10.1502C23.5328 9.38877 22.5627 8.87023 21.5066 8.66016C20.4505 8.45008 19.3558 8.5579 18.3609 8.96998C17.3661 9.38206 16.5158 10.0799 15.9176 10.9752C15.3193 11.8706 15 12.9232 15 14C15 15.4439 15.5736 16.8288 16.5946 17.8498C17.6157 18.8708 19.0005 19.4444 20.4444 19.4444ZM20.4444 10.1111C21.2136 10.1111 21.9655 10.3392 22.605 10.7665C23.2445 11.1938 23.743 11.8012 24.0373 12.5118C24.3316 13.2224 24.4087 14.0043 24.2586 14.7587C24.1086 15.513 23.7382 16.206 23.1943 16.7498C22.6504 17.2937 21.9575 17.6641 21.2031 17.8142C20.4488 17.9642 19.6668 17.8872 18.9562 17.5929C18.2456 17.2985 17.6383 16.8001 17.211 16.1605C16.7836 15.521 16.5556 14.7691 16.5556 14C16.5556 12.9686 16.9653 11.9794 17.6946 11.2501C18.4239 10.5208 19.413 10.1111 20.4444 10.1111Z" fill="white"/>
<path d="M21.2222 21H19.6666C17.3976 21 15.2214 21.9014 13.6169 23.5059C12.0125 25.1103 11.1111 27.2865 11.1111 29.5556C11.1111 29.7618 11.193 29.9597 11.3389 30.1055C11.4848 30.2514 11.6826 30.3333 11.8889 30.3333H29C29.2063 30.3333 29.4041 30.2514 29.5499 30.1055C29.6958 29.9597 29.7778 29.7618 29.7778 29.5556C29.7778 27.2865 28.8764 25.1103 27.2719 23.5059C25.6674 21.9014 23.4913 21 21.2222 21ZM12.7133 28.7778C12.9046 27.0672 13.7194 25.487 15.0021 24.3392C16.2847 23.1914 17.9454 22.5564 19.6666 22.5556H21.2222C22.9435 22.5564 24.6041 23.1914 25.8868 24.3392C27.1695 25.487 27.9843 27.0672 28.1755 28.7778H12.7133Z" fill="white"/>
</svg>
