<svg width="28" height="20" viewBox="0 0 40 32" fill="none" xmlns="http://www.w3.org/2000/svg">
<g clip-path="url(#clip0_204_3)">
<path d="M37 12H29.5788C30.3719 13.8494 30.0238 16.075 28.5163 17.5825L20 26.0987V29C20 30.6569 21.3431 32 23 32H37C38.6569 32 40 30.6569 40 29V15C40 13.3431 38.6569 12 37 12ZM30 23.5C29.1719 23.5 28.5 22.8281 28.5 22C28.5 21.1712 29.1719 20.5 30 20.5C30.8281 20.5 31.5 21.1712 31.5 22C31.5 22.8281 30.8281 23.5 30 23.5ZM27.1019 11.8313L16.1688 0.898125C14.9713 -0.299375 13.0294 -0.299375 11.8319 0.898125L0.898125 11.8313C-0.299375 13.0288 -0.299375 14.9706 0.898125 16.1681L11.8313 27.1019C13.0288 28.2994 14.9706 28.2994 16.1681 27.1019L27.1019 16.1688C28.2994 14.9706 28.2994 13.0288 27.1019 11.8313ZM6 15.5C5.17188 15.5 4.5 14.8281 4.5 14C4.5 13.1712 5.17188 12.5 6 12.5C6.82812 12.5 7.5 13.1712 7.5 14C7.5 14.8281 6.82812 15.5 6 15.5ZM14 23.5C13.1719 23.5 12.5 22.8281 12.5 22C12.5 21.1712 13.1719 20.5 14 20.5C14.8281 20.5 15.5 21.1712 15.5 22C15.5 22.8281 14.8281 23.5 14 23.5ZM14 15.5C13.1719 15.5 12.5 14.8281 12.5 14C12.5 13.1712 13.1719 12.5 14 12.5C14.8281 12.5 15.5 13.1712 15.5 14C15.5 14.8281 14.8281 15.5 14 15.5ZM14 7.5C13.1719 7.5 12.5 6.82812 12.5 6C12.5 5.17125 13.1719 4.5 14 4.5C14.8281 4.5 15.5 5.17125 15.5 6C15.5 6.82812 14.8281 7.5 14 7.5ZM22 15.5C21.1719 15.5 20.5 14.8281 20.5 14C20.5 13.1712 21.1719 12.5 22 12.5C22.8281 12.5 23.5 13.1712 23.5 14C23.5 14.8281 22.8281 15.5 22 15.5Z" fill="#7A9097"/>
</g>
<defs>
<clipPath id="clip0_204_3">
<rect width="40" height="32" fill="white"/>
</clipPath>
</defs>
</svg>
