<svg width="20" height="32" viewBox="0 0 32 32" fill="none" xmlns="http://www.w3.org/2000/svg">
<path d="M1.89982 26.3991C1.80727 26.412 1.71338 26.412 1.62083 26.3991C1.43288 26.338 1.27023 26.2169 1.158 26.0542C1.04577 25.8916 0.990197 25.6965 0.999855 25.4991V24.5991C1.00021 20.5323 2.45001 16.5988 5.08903 13.5046C7.72805 10.4103 11.3835 8.35794 15.3993 7.71581V3.89996C15.3993 3.73283 15.4458 3.569 15.5337 3.42683C15.6216 3.28465 15.7473 3.16976 15.8968 3.09501C16.0463 3.02027 16.2136 2.98863 16.3801 3.00364C16.5465 3.01865 16.7055 3.07971 16.8392 3.17999L27.6388 11.2797C27.7506 11.3635 27.8413 11.4722 27.9038 11.5972C27.9662 11.7221 27.9988 11.8599 27.9988 11.9996C27.9988 12.1394 27.9662 12.2772 27.9038 12.4021C27.8413 12.5271 27.7506 12.6358 27.6388 12.7196L16.8392 20.8193C16.7055 20.9196 16.5465 20.9806 16.3801 20.9956C16.2136 21.0107 16.0463 20.979 15.8968 20.9043C15.7473 20.8295 15.6216 20.7146 15.5337 20.5725C15.4458 20.4303 15.3993 20.2665 15.3993 20.0993V16.7245C11.0413 17.4357 7.13884 19.8347 4.53671 23.4022L2.62879 26.0301C2.54501 26.1447 2.43529 26.2379 2.30859 26.3021C2.18189 26.3662 2.04182 26.3994 1.89982 26.3991ZM17.1992 5.69989V8.50778C17.2006 8.73027 17.1194 8.94536 16.9715 9.11156C16.8236 9.27776 16.6194 9.38328 16.3982 9.40774C13.0048 9.77797 9.83258 11.2724 7.3864 13.6534C4.94022 16.0343 3.36057 19.165 2.89878 22.5472L3.04277 22.3582C4.58285 20.2436 6.55143 18.4773 8.8201 17.1748C11.0888 15.8722 13.6066 15.0625 16.2092 14.7985C16.3347 14.7869 16.4612 14.8016 16.5806 14.842C16.7 14.8823 16.8095 14.9472 16.9022 15.0325C16.9955 15.1167 17.07 15.2194 17.1212 15.3341C17.1723 15.4488 17.1989 15.5729 17.1992 15.6985V18.2994L25.5959 11.9996L17.1992 5.69989Z" fill="white"/>
</svg>
