<svg width="25" height="25" viewBox="0 0 25 25" fill="none" xmlns="http://www.w3.org/2000/svg">
<path d="M12.4444 12.4444C13.5213 12.4444 14.5739 12.1251 15.4692 11.5269C16.3645 10.9286 17.0624 10.0783 17.4745 9.0835C17.8865 8.08866 17.9944 6.99396 17.7843 5.93784C17.5742 4.88172 17.0557 3.91162 16.2942 3.1502C15.5328 2.38878 14.5627 1.87024 13.5066 1.66017C12.4505 1.45009 11.3558 1.55791 10.3609 1.96999C9.3661 2.38207 8.5158 3.07989 7.91755 3.97523C7.31931 4.87056 7 5.92319 7 7C7 8.44396 7.57361 9.82877 8.59464 10.8498C9.61567 11.8708 11.0005 12.4444 12.4444 12.4444ZM12.4444 3.11111C13.2136 3.11111 13.9655 3.33919 14.605 3.76651C15.2445 4.19382 15.743 4.80118 16.0373 5.51179C16.3316 6.22239 16.4087 7.00431 16.2586 7.75868C16.1086 8.51305 15.7382 9.20599 15.1943 9.74986C14.6504 10.2937 13.9575 10.6641 13.2031 10.8142C12.4488 10.9642 11.6668 10.8872 10.9562 10.5929C10.2456 10.2985 9.63827 9.80007 9.21095 9.16055C8.78364 8.52103 8.55556 7.76915 8.55556 7C8.55556 5.9686 8.96528 4.97945 9.69458 4.25014C10.4239 3.52083 11.413 3.11111 12.4444 3.11111Z" fill="white"/>
<path d="M13.2222 14H11.6667C9.3976 14 7.22146 14.9014 5.61698 16.5059C4.0125 18.1103 3.11111 20.2865 3.11111 22.5556C3.11111 22.7618 3.19306 22.9597 3.33892 23.1055C3.48478 23.2514 3.68261 23.3333 3.88889 23.3333H21C21.2063 23.3333 21.4041 23.2514 21.55 23.1055C21.6958 22.9597 21.7778 22.7618 21.7778 22.5556C21.7778 20.2865 20.8764 18.1103 19.2719 16.5059C17.6674 14.9014 15.4913 14 13.2222 14ZM4.71334 21.7778C4.90459 20.0672 5.7194 18.487 7.00209 17.3392C8.28477 16.1914 9.9454 15.5564 11.6667 15.5556H13.2222C14.9435 15.5564 16.6041 16.1914 17.8868 17.3392C19.1695 18.487 19.9843 20.0672 20.1756 21.7778H4.71334Z" fill="white"/>
</svg>
