<svg width="20" height="20" viewBox="0 0 24 24" fill="none" xmlns="http://www.w3.org/2000/svg">
<g clip-path="url(#clip0_9_262)">
<path d="M18 6H13C13 4.3 11.7 3 10 3H6C5.4 3 5 2.6 5 2C5 1.4 5.4 1 6 1H19.5C19.8 1 20 0.8 20 0.5C20 0.2 19.8 0 19.5 0H6C4.9 0 4 0.9 4 2C4 3.1 4.9 4 6 4H10C11.1 4 12 4.9 12 6H6C2.7 6 0 8.7 0 12V20C0 22.2 1.8 24 4 24C5.1 24 6.1 23.6 6.8 22.8L11.4 18.1C11.6 18 11.7 17.9 11.9 17.9C12.1 17.9 12.3 18 12.4 18.1L17 22.8C17.7 23.5 18.7 24 19.8 24C22 24 23.8 22.2 23.8 20V12C24 8.7 21.3 6 18 6ZM22 20C22 21.1 21.1 22 20 22C19.4 22 18.9 21.8 18.6 21.4L14.1 16.9C14.1 16.9 13.2 16 12 16C10.8 16 9.9 16.9 9.9 16.9L5.4 21.4C5.1 21.8 4.6 22 4 22C2.9 22 2 21.1 2 20V12C2 9.8 3.8 8 6 8H18C20.2 8 22 9.8 22 12V20Z" fill="white"/>
<path d="M17 16C17.5523 16 18 15.5523 18 15C18 14.4477 17.5523 14 17 14C16.4477 14 16 14.4477 16 15C16 15.5523 16.4477 16 17 16Z" fill="white"/>
<path d="M17 12C17.5523 12 18 11.5523 18 11C18 10.4477 17.5523 10 17 10C16.4477 10 16 10.4477 16 11C16 11.5523 16.4477 12 17 12Z" fill="white"/>
<path d="M15 14C15.5523 14 16 13.5523 16 13C16 12.4477 15.5523 12 15 12C14.4477 12 14 12.4477 14 13C14 13.5523 14.4477 14 15 14Z" fill="white"/>
<path d="M19 14C19.5523 14 20 13.5523 20 13C20 12.4477 19.5523 12 19 12C18.4477 12 18 12.4477 18 13C18 13.5523 18.4477 14 19 14Z" fill="white"/>
<path d="M9 12H8V11C8 10.4 7.6 10 7 10C6.4 10 6 10.4 6 11V12H5C4.4 12 4 12.4 4 13C4 13.6 4.4 14 5 14H6V15C6 15.6 6.4 16 7 16C7.6 16 8 15.6 8 15V14H9C9.6 14 10 13.6 10 13C10 12.4 9.6 12 9 12Z" fill="white"/>
</g>
<defs>
<clipPath id="clip0_9_262">
<rect width="24" height="24" fill="white"/>
</clipPath>
</defs>
</svg>
