<svg width="192" height="65" viewBox="0 0 192 65" fill="none" xmlns="http://www.w3.org/2000/svg">
<circle cx="32.5" cy="32.5" r="32.5" fill="#FF4500"/>
<g clip-path="url(#clip0_59_115)">
<path d="M26.1776 34.9565C24.8756 34.9565 23.8142 36.0171 23.8142 37.252C23.8142 38.4868 24.8756 39.5475 26.1776 39.5475C27.4796 39.5475 28.541 38.4868 28.541 37.252C28.541 36.0171 27.484 34.9565 26.1776 34.9565ZM20.757 38.0122C19.8336 37.0903 18.3382 37.0903 17.4156 38.0122C16.4922 38.9348 16.4922 40.4317 17.4156 41.3536L22.1365 46.0767C23.0598 46.9986 24.5552 46.9986 25.4778 46.0768C26.4012 45.1542 26.4012 43.6573 25.4778 42.7355L20.757 38.0122ZM16.724 44.4042C15.422 44.4042 14.3606 45.467 14.3606 46.7661C14.3606 48.0651 15.422 49.128 16.724 49.128C18.026 49.128 19.0874 48.0673 19.0874 46.8325C19.0874 45.5977 18.026 44.4042 16.724 44.4042ZM35.5957 16.5269C27.4102 14.3583 19.9702 20.0351 19.1509 27.6648C18.9442 29.0443 20.1717 30.1662 21.5622 30.1662C22.7882 30.1662 23.7212 29.2015 23.8681 27.9851C24.3799 23.7617 28.0907 20.5082 32.4964 20.7296C37.7894 20.9949 41.1396 26.3997 40.062 31.5723C39.5784 33.7608 38.4824 35.7699 36.8601 37.3937L35.6179 38.6986V39.6766C35.6179 41.9943 33.9416 43.9266 31.7369 44.3252C30.6283 44.5296 29.7131 45.5334 29.7131 46.6627C29.7131 48.1227 31.0328 49.2417 32.4721 48.9981C36.5995 48.3011 39.8258 44.9179 40.2886 40.7166C43.2491 37.714 44.9305 33.7822 45.0604 29.5787C45.2427 23.6193 41.3603 18.054 35.5957 16.5269ZM32.075 26.0993C33.7032 26.0993 35.0274 27.4234 35.0274 29.0517C35.0274 30.0297 35.8208 30.8231 36.7988 30.8231C37.7768 30.8231 38.5703 30.0297 38.5703 29.0517C38.5703 25.4697 35.657 22.5564 32.075 22.5564C28.493 22.5564 25.5797 25.4719 25.5797 29.0517C25.5797 30.0297 26.3732 30.8231 27.3511 30.8231C28.3291 30.8231 29.1226 30.0334 29.1226 29.0517C29.1226 27.4205 30.4438 26.0993 32.075 26.0993ZM43.7222 11.5679C42.5479 11.0074 41.1352 11.5057 40.5735 12.6817C40.013 13.8605 40.5123 15.2695 41.6895 15.8305C45.1763 17.4938 47.4275 21.2943 47.4275 25.5088C47.4275 26.8145 48.4851 27.8707 49.7894 27.8707C51.0936 27.8707 52.1513 26.8152 52.1513 25.5088C52.1513 19.4785 48.8446 14.0085 43.7222 11.5679Z" fill="#FFF7F7"/>
</g>
<path d="M75.5 46C74.948 46 74.468 45.796 74.06 45.388C73.676 44.98 73.484 44.5 73.484 43.948V29.332C73.484 28.78 73.676 28.3 74.06 27.892C74.468 27.484 74.948 27.28 75.5 27.28H76.004C76.556 27.28 77.024 27.472 77.408 27.856C77.816 28.24 78.032 28.708 78.056 29.26V29.512C78.056 29.536 78.068 29.548 78.092 29.548C78.14 29.548 78.164 29.536 78.164 29.512C79.58 27.784 81.176 26.92 82.952 26.92C84.032 26.92 84.896 27.124 85.544 27.532C86.216 27.94 86.804 28.66 87.308 29.692C87.308 29.716 87.332 29.728 87.38 29.728C87.404 29.728 87.428 29.716 87.452 29.692C88.964 27.844 90.668 26.92 92.564 26.92C94.556 26.92 95.984 27.46 96.848 28.54C97.736 29.62 98.18 31.48 98.18 34.12V43.948C98.18 44.5 97.976 44.98 97.568 45.388C97.184 45.796 96.716 46 96.164 46H95.552C95 46 94.52 45.796 94.112 45.388C93.704 44.98 93.5 44.5 93.5 43.948V34.84C93.5 33.088 93.332 31.936 92.996 31.384C92.66 30.832 92.012 30.556 91.052 30.556C90.428 30.556 89.804 30.844 89.18 31.42C88.556 31.996 88.244 32.572 88.244 33.148V43.948C88.244 44.5 88.04 44.98 87.632 45.388C87.224 45.796 86.744 46 86.192 46H85.58C85.028 46 84.548 45.796 84.14 45.388C83.756 44.98 83.564 44.5 83.564 43.948V34.84C83.564 33.112 83.384 31.972 83.024 31.42C82.688 30.844 82.04 30.556 81.08 30.556C80.456 30.556 79.832 30.844 79.208 31.42C78.584 31.996 78.272 32.572 78.272 33.148V43.948C78.272 44.5 78.068 44.98 77.66 45.388C77.252 45.796 76.772 46 76.22 46H75.5ZM109.28 37C105.848 37 104.132 38.056 104.132 40.168C104.132 40.936 104.348 41.56 104.78 42.04C105.236 42.52 105.812 42.76 106.508 42.76C107.876 42.76 108.98 42.34 109.82 41.5C110.66 40.636 111.08 39.46 111.08 37.972V37.324C111.08 37.108 110.972 37 110.756 37H109.28ZM105.212 46.36C103.58 46.36 102.224 45.832 101.144 44.776C100.088 43.696 99.5601 42.304 99.5601 40.6C99.5601 38.512 100.352 36.892 101.936 35.74C103.544 34.588 105.992 34.012 109.28 34.012H110.756C110.972 34.012 111.08 33.904 111.08 33.688V33.4C111.08 32.296 110.816 31.528 110.288 31.096C109.76 30.64 108.824 30.412 107.48 30.412C106.088 30.412 104.384 30.664 102.368 31.168C101.936 31.288 101.54 31.216 101.18 30.952C100.82 30.664 100.64 30.292 100.64 29.836C100.64 29.284 100.808 28.792 101.144 28.36C101.48 27.904 101.912 27.628 102.44 27.532C104.264 27.124 105.98 26.92 107.588 26.92C110.66 26.92 112.808 27.472 114.032 28.576C115.256 29.68 115.868 31.612 115.868 34.372V43.948C115.868 44.5 115.664 44.98 115.256 45.388C114.872 45.796 114.404 46 113.852 46H113.456C112.88 46 112.388 45.808 111.98 45.424C111.572 45.016 111.356 44.524 111.332 43.948V43.444C111.332 43.42 111.32 43.408 111.296 43.408C111.248 43.408 111.224 43.42 111.224 43.444C109.76 45.388 107.756 46.36 105.212 46.36ZM120.172 46C119.62 46 119.14 45.796 118.732 45.388C118.324 44.98 118.12 44.5 118.12 43.948V29.332C118.12 28.78 118.324 28.3 118.732 27.892C119.14 27.484 119.62 27.28 120.172 27.28H120.892C121.444 27.28 121.924 27.484 122.332 27.892C122.74 28.3 122.944 28.78 122.944 29.332V30.844C122.944 30.868 122.956 30.88 122.98 30.88C123.028 30.88 123.052 30.868 123.052 30.844C123.748 29.884 124.66 29.104 125.788 28.504C126.916 27.88 128.152 27.496 129.496 27.352C130 27.304 130.432 27.472 130.792 27.856C131.152 28.216 131.332 28.648 131.332 29.152C131.332 29.656 131.152 30.088 130.792 30.448C130.432 30.808 130 31.012 129.496 31.06C125.248 31.396 123.124 33.556 123.124 37.54V43.948C123.124 44.5 122.92 44.98 122.512 45.388C122.104 45.796 121.624 46 121.072 46H120.172ZM136.204 46C135.652 46 135.172 45.796 134.764 45.388C134.356 44.98 134.152 44.5 134.152 43.948V29.332C134.152 28.78 134.356 28.3 134.764 27.892C135.172 27.484 135.652 27.28 136.204 27.28H137.14C137.692 27.28 138.172 27.484 138.58 27.892C138.988 28.3 139.192 28.78 139.192 29.332V43.948C139.192 44.5 138.988 44.98 138.58 45.388C138.172 45.796 137.692 46 137.14 46H136.204ZM136.204 23.32C135.652 23.32 135.172 23.116 134.764 22.708C134.356 22.3 134.152 21.82 134.152 21.268V21.052C134.152 20.5 134.356 20.02 134.764 19.612C135.172 19.204 135.652 19 136.204 19H137.14C137.692 19 138.172 19.204 138.58 19.612C138.988 20.02 139.192 20.5 139.192 21.052V21.268C139.192 21.82 138.988 22.3 138.58 22.708C138.172 23.116 137.692 23.32 137.14 23.32H136.204ZM143.544 31.492C143.064 31.492 142.656 31.324 142.32 30.988C141.984 30.628 141.816 30.208 141.816 29.728C141.816 29.248 141.984 28.84 142.32 28.504C142.656 28.168 143.064 28 143.544 28H145.272C145.488 28 145.596 27.892 145.596 27.676V23.212C145.596 22.66 145.788 22.18 146.172 21.772C146.58 21.364 147.06 21.16 147.612 21.16H148.332C148.884 21.16 149.364 21.364 149.772 21.772C150.18 22.18 150.384 22.66 150.384 23.212V27.676C150.384 27.892 150.492 28 150.708 28H154.812C155.292 28 155.7 28.168 156.036 28.504C156.396 28.84 156.576 29.248 156.576 29.728C156.576 30.208 156.396 30.628 156.036 30.988C155.7 31.324 155.292 31.492 154.812 31.492H150.708C150.492 31.492 150.384 31.588 150.384 31.78V39.052C150.384 40.612 150.552 41.62 150.888 42.076C151.224 42.532 151.92 42.76 152.976 42.76C153.552 42.76 153.984 42.736 154.272 42.688C154.752 42.64 155.172 42.748 155.532 43.012C155.892 43.276 156.072 43.636 156.072 44.092C156.072 44.62 155.892 45.1 155.532 45.532C155.196 45.94 154.776 46.168 154.272 46.216C153.216 46.312 152.424 46.36 151.896 46.36C149.568 46.36 147.936 45.868 147 44.884C146.064 43.876 145.596 42.088 145.596 39.52V31.78C145.596 31.588 145.488 31.492 145.272 31.492H143.544ZM166.321 30.268C165.097 30.268 164.149 30.616 163.477 31.312C162.829 31.984 162.421 33.076 162.253 34.588C162.253 34.78 162.349 34.876 162.541 34.876H169.597C169.789 34.876 169.885 34.78 169.885 34.588C169.789 31.708 168.601 30.268 166.321 30.268ZM167.221 46.36C164.077 46.36 161.653 45.544 159.949 43.912C158.269 42.256 157.429 39.832 157.429 36.64C157.429 33.472 158.185 31.06 159.697 29.404C161.209 27.748 163.393 26.92 166.249 26.92C171.577 26.92 174.313 29.944 174.457 35.992C174.481 36.568 174.277 37.048 173.845 37.432C173.413 37.816 172.909 38.008 172.333 38.008H162.505C162.289 38.008 162.205 38.116 162.253 38.332C162.421 39.94 162.949 41.116 163.837 41.86C164.749 42.58 166.069 42.94 167.797 42.94C168.877 42.94 170.077 42.76 171.397 42.4C171.829 42.28 172.225 42.352 172.585 42.616C172.969 42.88 173.161 43.24 173.161 43.696C173.161 44.248 172.993 44.74 172.657 45.172C172.345 45.58 171.925 45.832 171.397 45.928C170.053 46.216 168.661 46.36 167.221 46.36ZM182.265 38.44C179.745 37.888 177.945 37.132 176.865 36.172C175.809 35.212 175.281 33.964 175.281 32.428C175.281 30.7 175.917 29.356 177.189 28.396C178.485 27.412 180.393 26.92 182.913 26.92C184.497 26.92 186.069 27.064 187.629 27.352C188.157 27.448 188.577 27.712 188.889 28.144C189.225 28.552 189.393 29.032 189.393 29.584C189.393 30.04 189.213 30.412 188.853 30.7C188.493 30.964 188.085 31.036 187.629 30.916C186.285 30.58 184.869 30.412 183.381 30.412C181.221 30.412 180.141 31.012 180.141 32.212C180.141 32.788 180.345 33.268 180.753 33.652C181.161 34.036 181.857 34.336 182.841 34.552C185.601 35.104 187.485 35.848 188.493 36.784C189.525 37.72 190.041 39.088 190.041 40.888C190.041 42.616 189.393 43.96 188.097 44.92C186.801 45.88 184.917 46.36 182.445 46.36C180.837 46.36 179.193 46.168 177.513 45.784C176.985 45.664 176.553 45.388 176.217 44.956C175.881 44.5 175.713 43.984 175.713 43.408C175.713 42.952 175.893 42.604 176.253 42.364C176.637 42.124 177.045 42.064 177.477 42.184C179.037 42.616 180.513 42.832 181.905 42.832C184.089 42.832 185.181 42.184 185.181 40.888C185.181 40.264 184.965 39.772 184.533 39.412C184.125 39.052 183.369 38.728 182.265 38.44Z" fill="white"/>
<circle cx="136.5" cy="21.5" r="3.5" fill="#FF4500"/>
<defs>
<clipPath id="clip0_59_115">
<rect width="37.7907" height="37.7907" fill="white" transform="translate(14.3606 11.3372)"/>
</clipPath>
</defs>
</svg>
