<svg width="20" height="37" viewBox="0 0 37 37" fill="none" xmlns="http://www.w3.org/2000/svg">
<path d="M3.08483 15.3533C3.05723 16.2002 3.55741 17.1261 4.42831 17.5271L14.7163 22.2623L19.3706 32.5546C19.7656 33.4281 20.6893 33.9341 21.536 33.9109C22.3827 33.8876 23.2761 33.3313 23.6226 32.4375L33.7637 6.28093C34.1108 5.38541 33.8361 4.37538 33.2357 3.77285C32.572 3.0506 31.5274 2.95162 30.7275 3.23632L4.56669 13.271C3.50325 13.726 3.11641 14.4339 3.08483 15.3533ZM7.38143 15.4937L30.291 6.70888L21.4189 29.5993L17.2883 20.4696C17.1353 20.1316 16.8654 19.8602 16.5283 19.7051L7.38143 15.4937Z" fill="white"/>
</svg>
