<svg width="65" height="65" viewBox="0 0 65 65" fill="none" xmlns="http://www.w3.org/2000/svg">
<circle cx="32.5" cy="32.5" r="32.5" fill="#FF4500"/>
<g clip-path="url(#clip0_59_116)">
<path d="M26.1776 34.9565C24.8756 34.9565 23.8142 36.0171 23.8142 37.252C23.8142 38.4868 24.8756 39.5475 26.1776 39.5475C27.4796 39.5475 28.541 38.4868 28.541 37.252C28.541 36.0171 27.484 34.9565 26.1776 34.9565ZM20.757 38.0122C19.8336 37.0903 18.3382 37.0903 17.4156 38.0122C16.4922 38.9348 16.4922 40.4317 17.4156 41.3536L22.1365 46.0767C23.0598 46.9986 24.5552 46.9986 25.4778 46.0768C26.4012 45.1542 26.4012 43.6573 25.4778 42.7355L20.757 38.0122ZM16.724 44.4042C15.422 44.4042 14.3606 45.467 14.3606 46.7661C14.3606 48.0651 15.422 49.128 16.724 49.128C18.026 49.128 19.0874 48.0673 19.0874 46.8325C19.0874 45.5977 18.026 44.4042 16.724 44.4042ZM35.5957 16.5269C27.4102 14.3583 19.9702 20.0351 19.1509 27.6648C18.9442 29.0443 20.1717 30.1662 21.5622 30.1662C22.7882 30.1662 23.7212 29.2015 23.8681 27.9851C24.3799 23.7617 28.0907 20.5082 32.4964 20.7296C37.7894 20.9949 41.1396 26.3997 40.062 31.5723C39.5784 33.7608 38.4824 35.7699 36.8601 37.3937L35.6179 38.6986V39.6766C35.6179 41.9943 33.9416 43.9266 31.7369 44.3252C30.6283 44.5296 29.7131 45.5334 29.7131 46.6627C29.7131 48.1227 31.0328 49.2417 32.4721 48.9981C36.5995 48.3011 39.8258 44.9179 40.2886 40.7166C43.2491 37.714 44.9305 33.7822 45.0604 29.5787C45.2427 23.6193 41.3603 18.054 35.5957 16.5269ZM32.075 26.0993C33.7032 26.0993 35.0274 27.4234 35.0274 29.0517C35.0274 30.0297 35.8208 30.8231 36.7988 30.8231C37.7768 30.8231 38.5703 30.0297 38.5703 29.0517C38.5703 25.4697 35.657 22.5564 32.075 22.5564C28.493 22.5564 25.5797 25.4719 25.5797 29.0517C25.5797 30.0297 26.3732 30.8231 27.3511 30.8231C28.3291 30.8231 29.1226 30.0334 29.1226 29.0517C29.1226 27.4205 30.4438 26.0993 32.075 26.0993ZM43.7222 11.5679C42.5479 11.0074 41.1352 11.5057 40.5735 12.6817C40.013 13.8605 40.5123 15.2695 41.6895 15.8305C45.1763 17.4938 47.4275 21.2943 47.4275 25.5088C47.4275 26.8145 48.4851 27.8707 49.7894 27.8707C51.0936 27.8707 52.1513 26.8152 52.1513 25.5088C52.1513 19.4785 48.8446 14.0085 43.7222 11.5679Z" fill="#FFF7F7"/>
</g>
<defs>
<clipPath id="clip0_59_116">
<rect width="37.7907" height="37.7907" fill="white" transform="translate(14.3606 11.3372)"/>
</clipPath>
</defs>
</svg>
